<?xml version="1.0" standalone="no"?>
<!DOCTYPE svg PUBLIC "-//W3C//DTD SVG 20010904//EN"
 "http://www.w3.org/TR/2001/REC-SVG-20010904/DTD/svg10.dtd">
<svg version="1.0" xmlns="http://www.w3.org/2000/svg"
 width="710.000000pt" height="180.000000pt" viewBox="0 0 710.000000 180.000000"
 preserveAspectRatio="xMidYMid meet">

<g transform="translate(0.000000,180.000000) scale(0.100000,-0.100000)"
fill="#000000" stroke="none">
<path d="M1330 1134 c-34 -102 -60 -187 -58 -189 2 -2 13 -2 23 1 15 4 29 34
60 130 21 69 42 127 47 130 4 3 3 16 -2 30 -6 14 -10 27 -10 30 0 2 88 4 195
4 l195 0 0 25 0 25 -194 0 -194 0 -62 -186z"/>
<path d="M1260 894 c-12 -4 -38 -69 -67 -175 -3 -10 3 -18 15 -21 16 -5 23 8
50 91 40 121 40 115 2 105z"/>
</g>
</svg>
